# xmcd
#
# Track frame offsets:
#	150
#	13360
#	26871
#	39614
#	53319
#	64350
#	78183
#	90563
#	103329
#	117341
#	144228
#	157754
#	181674
#	200584
#	214716
#	238906
#
# Disc length: 3332 seconds
#
# Revision: 1
# Processed by: cddbd v1.5.2PL0 Copyright (c) Steve Scherf et al.
# Submitted via: audiograbber 1.83.01
#
DISCID=d60d0210
DTITLE=Mulehead - Finer Thing
DYEAR=2004
DGENRE=Country Rock
TTITLE0=There Are Nights
TTITLE1=Sober Weekends
TTITLE2=Frankie Lee
TTITLE3=All Fall Down
TTITLE4=Crows On The Wire
TTITLE5=Cottonmouth and Copperheads
TTITLE6=Gardener's Manifesto
TTITLE7=My House
TTITLE8=Deep Water
TTITLE9=Watcha' See
TTITLE10=Stubborn Blood
TTITLE11=Let The Hammers Fall Where They May
TTITLE12=Eventually
TTITLE13=Favorite Song
TTITLE14=Out On The Porch
TTITLE15=Feathers In The Wind
EXTD=
EXTT0=
EXTT1=
EXTT2=
EXTT3=
EXTT4=
EXTT5=
EXTT6=
EXTT7=
EXTT8=
EXTT9=
EXTT10=
EXTT11=
EXTT12=
EXTT13=
EXTT14=
EXTT15=
PLAYORDER=
